<?xml version="1.0" encoding="iso-8859-1"?>
<!-- Generator: Adobe Illustrator 19.0.0, SVG Export Plug-In . SVG Version: 6.00 Build 0)  -->
<svg version="1.1" id="Layer_1" xmlns="http://www.w3.org/2000/svg" xmlns:xlink="http://www.w3.org/1999/xlink" x="0px" y="0px"
	 viewBox="0 0 512 512" style="enable-background:new 0 0 512 512;" xml:space="preserve">
<g>
	<path style="fill:#4C1B27;" d="M455.637,512h-64.108c-8.315,0-15.059-6.742-15.059-15.059c0-8.317,6.743-15.059,15.059-15.059
		h64.108c0.336,0,0.538,0,0.745-0.503c0.202-0.491,0.069-0.622-0.17-0.86c-46.825-46.292-121.671-73.931-200.213-73.931
		S102.612,434.227,55.786,480.52c-0.239,0.238-0.372,0.369-0.17,0.86c0.206,0.503,0.41,0.503,0.745,0.503h229.755
		c8.315,0,15.059,6.742,15.059,15.059c0,8.317-6.743,15.059-15.059,15.059H56.362c-12.589,0-23.817-7.526-28.603-19.174
		c-4.784-11.64-2.093-24.879,6.855-33.724c53.114-52.513,133.807-82.631,221.386-82.631s168.272,30.118,221.387,82.632
		c8.946,8.846,11.639,22.084,6.855,33.724C479.456,504.474,468.228,512,455.637,512z"/>
	<path style="fill:#4C1B27;" d="M120.471,434.455c-2.866,0-5.719-0.818-8.197-2.424c-4.28-2.777-6.864-7.531-6.864-12.634V97.882
		c0-20.759,16.888-37.647,37.647-37.647s37.647,16.888,37.647,37.647v305.474c0,6.799-4.555,12.755-11.118,14.533
		c-14.883,4.036-29.342,9.169-42.978,15.258C124.647,434.022,122.556,434.455,120.471,434.455z M143.058,90.353
		c-4.152,0-7.529,3.378-7.529,7.529v299.211c4.956-1.797,9.981-3.482,15.059-5.049V97.882
		C150.588,93.731,147.21,90.353,143.058,90.353z"/>
</g>
<path style="fill:#D46366;" d="M341.585,92.818l33.882-62.119c3.846-7.048-1.256-15.64-9.284-15.64h-162.89
	c-4.158,0-7.529,3.372-7.529,7.529l0,0c0,4.158-3.372,7.529-7.529,7.529h-50.447c-9.564,0-17.318,7.754-17.318,17.318v131.012
	c0,9.564,7.754,17.318,17.318,17.318h103.153c4.158,0,7.529-3.372,7.529-7.529l0,0c0-4.158,3.372-7.529,7.529-7.529h110.184
	c8.028,0,13.128-8.593,9.285-15.64l-33.882-62.119C339.863,99.79,339.863,95.974,341.585,92.818z"/>
<path style="fill:#4C1B27;" d="M240.941,210.824H137.788c-17.852,0-32.376-14.524-32.376-32.376V47.435
	c0-17.852,14.524-32.376,32.376-32.376h44.207C185.102,6.295,193.477,0,203.294,0h162.89c9.138,0,17.379,4.691,22.045,12.549
	s4.837,17.339,0.462,25.361l-32.714,59.973l32.714,59.972c4.375,8.023,4.203,17.503-0.462,25.361
	c-4.665,7.858-12.907,12.55-22.045,12.55H262.24C259.132,204.529,250.757,210.824,240.941,210.824z M137.788,45.176
	c-1.245,0-2.259,1.013-2.259,2.259v131.012c0,1.245,1.013,2.259,2.259,2.259H234.7c3.107-8.764,11.482-15.059,21.299-15.059h102.632
	l-30.268-55.489c-4.189-7.689-4.189-16.863-0.003-24.546l30.271-55.495H209.532c-3.107,8.764-11.482,15.059-21.299,15.059H137.788z"
	/>
<g>
</g>
<g>
</g>
<g>
</g>
<g>
</g>
<g>
</g>
<g>
</g>
<g>
</g>
<g>
</g>
<g>
</g>
<g>
</g>
<g>
</g>
<g>
</g>
<g>
</g>
<g>
</g>
<g>
</g>
</svg>
